# xmcd
#
# Track frame offsets: 
#        150
#        35015
#        59885
#        83975
#        112135
#        134847
#        156962
#        179047
#        206070
#        236512
#
# Disc length: 3603 seconds
#
# Revision: 5
# Processed by: cddbd v1.5.2PL0 Copyright (c) Steve Scherf et al.
# Submitted via: ExactAudioCopy v1.0b3
#
DISCID=a20e110a
DTITLE=THE ALFEE - LIVE IN PROGRESS Disc 1 PCCA-00788
DYEAR=1995
DGENRE=JPop
TTITLE0=孤独の影 
TTITLE1=殉愛 
TTITLE2=Time Spirit 
TTITLE3=The Ages 
TTITLE4=冒険者たち 
TTITLE5=High-Heel Resistance 
TTITLE6=Count Down 1999 
TTITLE7=見つめていたい 
TTITLE8=Complex Blue -愛だけ哀しすぎて- 
TTITLE9=Saved By The Love Song 
EXTD=YEAR: 1995
EXTT0=
EXTT1=
EXTT2=
EXTT3=
EXTT4=
EXTT5=
EXTT6=
EXTT7=
EXTT8=
EXTT9=
PLAYORDER=
